# Created by Kenney (www.kenney.nl)

mtllib boss-1-club.mtl

g mergedBlocks

v 0.1085809 0.2000255 -0.04499996
v 0.04494123 0.2000255 -0.1086396
v 0.1085808 0.2000255 0.04500005
v 0.04494122 0.2000255 0.1086397
v -0.04505877 0.2000255 -0.1086396
v -0.04505877 0.2000255 0.1086397
v -0.1086984 0.2000255 -0.04499997
v -0.1086984 0.2000255 0.04500005
v 0.1085809 0.5000255 -0.045
v 0.1085808 0.5000255 0.04500001
v 0.04494123 0.5000255 -0.1086396
v 0.04494122 0.5000255 0.1086396
v -0.04505877 0.5000255 -0.1086396
v -0.04505877 0.5000255 0.1086396
v -0.1086984 0.5000255 -0.04500001
v -0.1086984 0.5000255 0.04500001
v -0.1086984 0.3500255 -0.04499999
v -0.04505877 0.3500255 -0.1086396
v 0.1085808 0.3500255 -0.04499998
v 0.1085808 0.3500255 0.04500003
v -0.1086984 0.3500255 0.04500003
v -0.04505877 0.3500255 0.1086397
v 0.04494122 0.3500255 0.1086397
v 0.04494123 0.3500255 -0.1086396
v -0.1611981 0.2975258 0.04500004
v -0.1611981 0.2975257 -0.04499998
v 0.04494122 0.4625255 -0.1461396
v -0.04505878 0.4625255 -0.1461396
v 0.04494122 0.4625255 0.1461396
v -0.04505878 0.4625255 0.1461396
v 0.1610806 0.2975258 0.04500004
v 0.1610806 0.2975257 -0.04499997
v 0.1085809 -0.1 -0.04507065
v 0.04494123 -0.1 -0.1087103
v 0.1085808 -0.09999999 0.04492936
v 0.04494122 -0.09999998 0.108569
v -0.04505877 -0.1 -0.1087103
v -0.04505877 -0.09999998 0.108569
v -0.1086984 -0.1 -0.04507066
v -0.1086984 -0.09999999 0.04492936
v 0.1085809 0.2 -0.04507069
v 0.1085808 0.2 0.04492932
v 0.04494123 0.2 -0.1087103
v 0.04494122 0.2 0.1085689
v -0.04505877 0.2 -0.1087103
v -0.04505877 0.2 0.1085689
v -0.1086984 0.2 -0.0450707
v -0.1086984 0.2 0.04492932
v 4.614412E-06 0.6835707 0.1085689
v -0.09542222 0.7790632 0.1085689
v 3.554325E-05 0.7735708 0.04492925
v -0.05040662 0.8240476 0.04492925
v -0.1086984 0.4999467 -0.04507072
v -0.1086724 0.574968 -0.04507073
v -0.1086984 0.4999467 0.04492928
v -0.1086724 0.574968 0.04492928
v -0.0450237 0.6013064 -0.1087103
v 4.614412E-06 0.6835707 -0.1087104
v -0.1590834 0.7154458 -0.1087104
v -0.09542222 0.7790632 -0.1087104
v 0.1591146 0.7153356 -0.1087104
v 0.0449763 0.6012765 -0.1087103
v 0.04494123 0.4999467 -0.1087103
v -0.04505877 0.4999467 -0.1087103
v 0.09549663 0.7789974 -0.1087104
v 3.554325E-05 0.7735708 -0.04507076
v -0.05040662 0.8240476 -0.04507076
v 0.204099 0.67032 0.04492927
v 0.204099 0.67032 -0.04507074
v 0.1086068 0.5748941 0.04492928
v 0.1086068 0.5748941 -0.04507073
v 0.0449763 0.6012765 0.1085689
v 0.1591146 0.7153356 0.1085689
v -0.204099 0.6704607 0.04492927
v -0.0450237 0.6013065 0.1085689
v -0.1590834 0.7154458 0.1085689
v 0.1085809 0.4999467 -0.04507072
v 0.1085809 0.4999467 0.04492928
v -0.204099 0.6704607 -0.04507074
v 0.05051223 0.8240131 0.04492925
v 0.05051223 0.8240131 -0.04507076
v 0.09549663 0.7789974 0.1085689
v 0.04494123 0.4999467 0.1085689
v -0.04505877 0.4999467 0.1085689

vn 0 -1 1.192093E-07
vn 0 1 -1.192093E-07
vn -0.7071068 -8.42937E-08 -0.7071068
vn 1 0 0
vn -0.7071068 8.429369E-08 0.7071068
vn 0.7071067 8.42937E-08 0.7071068
vn 0.7071068 -8.429369E-08 -0.7071068
vn -1 0 0
vn 0 1.192093E-07 1
vn -0.8804725 -0.4740971 5.651677E-08
vn 1 -3.577899E-14 -3.001359E-07
vn -1 3.577899E-14 3.001359E-07
vn 0 -0.1601823 -0.9870876
vn 0 -0.3162279 -0.9486834
vn 0 -1.192093E-07 -1
vn 0 -0.1601821 0.9870876
vn 0 -0.1601821 0.9870876
vn 0 -0.3162276 0.9486835
vn 0.8804725 -0.4740971 5.651677E-08
vn 0 0.7071066 -0.707107
vn -0.7071068 0.7071068 -8.42937E-08
vn 0 0.7071068 0.7071069
vn 0.7071068 0.7071068 -8.42937E-08
vn 0.5001717 0.4998282 0.7071068
vn -1 0.000346 -4.124642E-11
vn 0.7073497 0.7068639 -8.426473E-08
vn 0.7068611 -0.7073525 8.432298E-08
vn 0.4998263 -0.5001737 -0.7071068
vn -0.7071067 0.0002445747 -0.7071069
vn 0.5001717 0.499828 -0.7071069
vn 0.4998263 -0.5001736 0.7071069
vn -0.5001727 -0.4998251 0.7071084
vn 1 -0.000346 4.124642E-11
vn -0.7073516 -0.706862 8.426451E-08
vn -0.7068658 0.7073478 -8.432242E-08
vn 0.707351 0.7068626 -8.426458E-08
vn -0.7071067 0.0002447432 0.7071069
vn 0.7071067 -0.0002447432 -0.7071069
vn -0.7068637 0.7073499 -8.432267E-08
vn -0.5001727 -0.4998253 -0.7071083
vn 0.7071067 -0.0002445747 0.7071069
vn -0.4998292 0.5001711 -0.7071066
vn -0.4998292 0.5001712 0.7071065

vt -0.1085809 0.04499996
vt -0.04494123 0.1086396
vt -0.1085808 -0.04500005
vt -0.04494122 -0.1086397
vt 0.04505877 0.1086396
vt 0.04505877 -0.1086397
vt 0.1086984 0.04499996
vt 0.1086984 -0.04500005
vt -0.1085809 -0.045
vt -0.1085808 0.04500001
vt -0.04494123 -0.1086396
vt -0.04494122 0.1086396
vt 0.04505877 -0.1086396
vt 0.04505877 0.1086396
vt 0.1086984 -0.045
vt 0.1086984 0.04500001
vt 0.1086984 0.2000255
vt 0.04505877 0.2000255
vt 0.1086984 0.3500255
vt -0.1086396 0.3500255
vt -0.04499998 0.3500255
vt -0.1086396 0.2000255
vt -0.045 0.5000255
vt 0.04505877 0.5000255
vt 0.1086984 0.5000255
vt 0.04505877 0.3500255
vt 0.045 0.5000255
vt 0.04499998 0.3500255
vt -0.04500001 0.5000255
vt -0.04500003 0.3500255
vt 0.04500005 0.2000255
vt 0.04500003 0.3500255
vt 0.1086397 0.2000255
vt -0.1086984 0.5000255
vt -0.04505877 0.2000255
vt -0.1086984 0.3500255
vt 0.1086396 0.5000255
vt 0.04500001 0.5000255
vt -0.04505877 0.3500255
vt -0.04505877 0.5000255
vt -0.04500005 0.2000255
vt -0.1086397 0.2000255
vt -0.1086397 0.3500255
vt -0.1086396 0.5000255
vt 0.04494123 0.3500255
vt 0.04494123 0.2000255
vt 0.04494123 0.5000255
vt 0.1086396 0.5000255
vt 0.1086396 0.2000255
vt 0.04499996 0.2000255
vt 0.1085808 0.3500255
vt 0.1085809 0.5000255
vt 0.1085809 0.2000255
vt -0.1086984 0.2000255
vt -0.1611981 0.2975257
vt -0.04499996 0.2000255
vt -0.04499998 0.2975257
vt 0.04500004 0.2975257
vt 0.1461396 0.4625255
vt 0.1086396 0.3500255
vt -0.1461396 0.4625255
vt -0.1086396 0.5000255
vt -0.04494123 0.3500255
vt 0.04505878 0.4625255
vt -0.04494122 0.4625255
vt -0.04494123 0.2000255
vt -0.1461396 0.4625255
vt 0.04494122 0.3500255
vt 0.04494122 0.4625255
vt -0.04505878 0.4625255
vt 0.04494122 0.2000255
vt 0.1610806 0.2975257
vt 0.1085808 0.2000255
vt 0.1085808 0.3500255
vt 0.04499997 0.2975257
vt -0.04500004 0.2975257
vt -0.1085809 0.2000255
vt -0.1610806 0.2975257
vt -0.1085808 0.3500255
vt 0.1086397 0.3500255
vt 0.1461396 0.4625255
vt 0.1611981 0.2975257
vt -0.04494123 0.5000255
vt 0.1086984 -0.04499998
vt 0.1086984 0.04500003
vt 0.1611981 -0.04499998
vt 0.04494122 0.5000255
vt -0.1610806 -0.04499997
vt -0.1610806 0.04500004
vt -0.1085808 -0.04499998
vt -0.1085809 0.04507065
vt -0.04494123 0.1087103
vt -0.1085808 -0.04492936
vt -0.04494122 -0.108569
vt 0.04505877 0.1087103
vt 0.04505877 -0.108569
vt 0.1086984 0.04507066
vt 0.1086984 -0.04492936
vt -0.1085809 -0.04507069
vt -0.1085808 0.04492932
vt -0.04494123 -0.1087103
vt -0.04494122 0.1085689
vt 0.04505877 -0.1087103
vt 0.04505877 0.1085689
vt 0.1086984 -0.04507069
vt 0.1086984 0.04492932
vt 0.1086984 -0.1
vt 0.04505877 -0.1
vt 0.1086984 0.2
vt 0.04505877 0.2
vt 0.04507069 0.2
vt 0.04507065 -0.1
vt -0.04492932 0.2
vt -0.04492936 -0.09999999
vt 0.04492936 -0.09999999
vt 0.04492932 0.2
vt 0.108569 -0.09999998
vt 0.1085689 0.2000001
vt 0.04494122 -0.09999998
vt -0.04505877 -0.09999998
vt 0.04494122 0.2000001
vt -0.04505877 0.2000001
vt -0.04494123 -0.1
vt -0.04494123 0.2
vt -0.108569 -0.09999998
vt -0.1085689 0.2000001
vt 0.1087103 0.2
vt 0.1087103 -0.1
vt -0.04507066 -0.1
vt -0.04507069 0.2
vt 4.614412E-06 0.6835707
vt -0.09542222 0.7790632
vt 3.554325E-05 0.7735707
vt -0.05040662 0.8240476
vt -0.04507072 0.4999467
vt -0.04507073 0.574968
vt 0.04492928 0.4999467
vt 0.04492928 0.574968
vt 0.0450237 0.6013065
vt -4.614412E-06 0.6835707
vt 0.1590834 0.7154457
vt 0.09542222 0.7790632
vt -0.1591146 0.7153356
vt -0.0449763 0.6012765
vt -0.04494123 0.4999467
vt 0.04505877 0.4999467
vt -0.09549663 0.7789974
vt 0.04507075 0.7735707
vt -0.04492925 0.7735707
vt 0.04507076 0.8240476
vt -0.04492925 0.8240476
vt -0.204099 -0.04492927
vt -0.204099 0.04507074
vt -0.1086068 -0.04492928
vt -0.1086068 0.04507073
vt -0.1086068 0.5748941
vt -0.204099 0.67032
vt 0.1086984 0.4999467
vt 0.1086724 0.574968
vt -0.1087103 0.6013065
vt -0.1087103 0.4999467
vt -3.554325E-05 0.7735707
vt 0.05040662 0.8240476
vt 0.1086068 0.5748941
vt 0.0449763 0.6012765
vt 0.204099 0.67032
vt 0.1591146 0.7153356
vt -0.1086724 0.574968
vt -0.204099 0.6704607
vt -0.0450237 0.6013065
vt -0.1590834 0.7154458
vt 0.04507073 0.5748941
vt 0.04507072 0.4999467
vt -0.04492928 0.5748941
vt -0.04492928 0.4999467
vt -0.04507074 0.6704607
vt 0.04492927 0.6704607
vt -0.05051223 0.04492925
vt -3.554325E-05 0.04492925
vt -0.05051223 -0.04507076
vt -3.554325E-05 -0.04507075
vt 0.1087104 0.7153356
vt 0.04507074 0.67032
vt 0.1087104 0.7789974
vt 0.04507076 0.8240131
vt -0.04492927 0.67032
vt -0.04492925 0.8240131
vt -0.1085689 0.7153356
vt -0.1085689 0.7789974
vt 0.04494123 0.4999467
vt -0.04505877 0.4999467
vt 0.09549663 0.7789974
vt -0.1086984 0.4999467
vt -0.1085809 0.4999467
vt 0.05040662 0.04492925
vt 0.09542222 0.1085689
vt 0.05040662 -0.04507076
vt 0.09542222 -0.1087104
vt 0.1590834 0.1085689
vt 0.1590834 -0.1087104
vt 0.204099 0.04492927
vt 0.204099 -0.04507074
vt 0.204099 0.6704607
vt -0.1085809 -0.04492928
vt -0.1085809 0.04507072
vt -0.04494123 -0.1085689
vt -0.04494123 0.1087103
vt 0.04505877 -0.1085689
vt 0.04505877 0.1087103
vt 0.1086984 -0.04492928
vt 0.1086984 0.04507072
vt 0.1085809 0.4999467
vt -0.05051223 0.8240131
vt 0.05051223 0.8240131

usemtl stoneDark(Clone)

f 3/3/1 2/2/1 1/1/1
f 2/2/1 3/3/1 4/4/1
f 2/2/1 4/4/1 5/5/1
f 5/5/1 4/4/1 6/6/1
f 5/5/1 6/6/1 7/7/1
f 7/7/1 6/6/1 8/8/1
f 11/11/2 10/10/2 9/9/2
f 10/10/2 11/11/2 12/12/2
f 12/12/2 11/11/2 13/13/2
f 12/12/2 13/13/2 14/14/2
f 14/14/2 13/13/2 15/15/2
f 14/14/2 15/15/2 16/16/2
f 17/19/3 5/18/3 7/17/3
f 5/22/3 17/21/3 18/20/3
f 18/20/3 17/21/3 15/23/3
f 18/26/3 15/25/3 13/24/3
f 10/29/4 19/28/4 9/27/4
f 19/28/4 10/29/4 20/30/4
f 6/33/5 21/32/5 8/31/5
f 21/36/5 6/35/5 16/34/5
f 16/38/5 6/33/5 14/37/5
f 14/40/5 6/35/5 22/39/5
f 20/30/6 4/42/6 3/41/6
f 4/42/6 20/30/6 23/43/6
f 23/43/6 20/30/6 10/29/6
f 23/43/6 10/29/6 12/44/6
f 11/47/7 2/46/7 24/45/7
f 2/49/7 11/48/7 9/27/7
f 2/49/7 9/27/7 1/50/7
f 1/53/7 9/52/7 19/51/7
f 21/32/8 15/23/8 17/21/8
f 15/23/8 21/32/8 16/38/8
f 21/36/9 25/55/9 8/54/9
f 8/31/10 26/57/10 7/56/10
f 26/57/10 8/31/10 25/58/10
f 11/48/11 24/60/11 27/59/11
f 13/62/12 28/61/12 18/20/12
f 28/64/14 24/63/13 18/26/13
f 24/63/13 28/64/14 27/65/14
f 18/26/13 2/66/15 5/18/15
f 2/66/15 18/26/13 24/63/13
f 29/67/4 23/43/4 12/44/4
f 29/69/18 22/39/17 23/68/16
f 22/39/17 29/69/18 30/70/18
f 23/68/16 6/35/9 4/71/9
f 6/35/9 23/68/16 22/39/17
f 20/74/9 3/73/9 31/72/9
f 31/76/19 1/50/19 32/75/19
f 1/50/19 31/76/19 3/41/19
f 19/79/15 32/78/15 1/77/15
f 30/81/8 14/37/8 22/80/8
f 17/19/15 7/17/15 26/82/15
f 28/64/20 11/83/20 27/65/20
f 11/83/20 28/64/20 13/24/20
f 26/86/21 21/85/21 17/84/21
f 21/32/21 26/57/21 25/58/21
f 29/69/22 14/40/22 30/70/22
f 14/40/22 29/69/22 12/87/22
f 19/90/23 31/89/23 32/88/23
f 31/76/23 19/28/23 20/30/23
f 35/93/1 34/92/1 33/91/1
f 34/92/1 35/93/1 36/94/1
f 34/92/1 36/94/1 37/95/1
f 37/95/1 36/94/1 38/96/1
f 37/95/1 38/96/1 39/97/1
f 39/97/1 38/96/1 40/98/1
f 43/101/2 42/100/2 41/99/2
f 42/100/2 43/101/2 44/102/2
f 44/102/2 43/101/2 45/103/2
f 44/102/2 45/103/2 46/104/2
f 46/104/2 45/103/2 47/105/2
f 46/104/2 47/105/2 48/106/2
f 47/109/3 37/108/3 39/107/3
f 37/108/3 47/109/3 45/110/3
f 42/113/4 33/112/4 41/111/4
f 33/112/4 42/113/4 35/114/4
f 38/117/5 48/116/5 40/115/5
f 48/116/5 38/117/5 46/118/5
f 44/121/9 38/120/9 36/119/9
f 38/120/9 44/121/9 46/122/9
f 45/110/15 34/123/15 37/108/15
f 34/123/15 45/110/15 43/124/15
f 42/113/6 36/125/6 35/114/6
f 36/125/6 42/113/6 44/126/6
f 41/111/7 34/128/7 43/127/7
f 34/128/7 41/111/7 33/112/7
f 40/115/8 47/130/8 39/129/8
f 47/130/8 40/115/8 48/116/8
f 51/133/24 50/132/24 49/131/24
f 50/132/24 51/133/24 52/134/24
f 55/137/25 54/136/25 53/135/25
f 54/136/25 55/137/25 56/138/25
f 59/141/15 58/140/15 57/139/15
f 58/140/15 59/141/15 60/142/15
f 61/143/15 57/139/15 58/140/15
f 62/144/15 57/139/15 61/143/15
f 63/145/15 57/139/15 62/144/15
f 57/139/15 63/145/15 64/146/15
f 61/143/15 58/140/15 65/147/15
f 67/150/26 51/149/26 66/148/26
f 51/149/26 67/150/26 52/151/26
f 70/154/27 69/153/27 68/152/27
f 69/153/27 70/154/27 71/155/27
f 62/144/28 69/157/28 71/156/28
f 69/157/28 62/144/28 61/143/28
f 54/159/29 64/146/29 53/158/29
f 64/161/29 54/136/29 57/160/29
f 60/142/30 66/162/30 58/140/30
f 66/162/30 60/142/30 67/163/30
f 68/166/31 72/165/31 70/164/31
f 72/165/31 68/166/31 73/167/31
f 75/170/32 74/169/32 56/168/32
f 74/169/32 75/170/32 76/171/32
f 70/174/33 77/173/33 71/172/33
f 77/173/33 70/174/33 78/175/33
f 56/138/34 79/176/34 54/136/34
f 79/176/34 56/138/34 74/177/34
f 81/180/35 51/179/35 80/178/35
f 51/179/35 81/180/35 66/181/35
f 65/184/36 69/183/36 61/182/36
f 69/183/36 65/184/36 81/185/36
f 69/183/36 81/185/36 68/186/36
f 68/186/36 81/185/36 80/187/36
f 68/186/36 80/187/36 73/188/36
f 73/188/36 80/187/36 82/189/36
f 72/165/9 84/191/9 83/190/9
f 84/191/9 72/165/9 75/170/9
f 75/170/9 72/165/9 73/167/9
f 75/170/9 73/167/9 49/131/9
f 49/131/9 73/167/9 82/192/9
f 49/131/9 76/171/9 75/170/9
f 76/171/9 49/131/9 50/132/9
f 75/170/37 55/193/37 84/191/37
f 55/193/37 75/170/37 56/168/37
f 62/144/38 77/194/38 63/145/38
f 77/194/38 62/144/38 71/156/38
f 67/197/39 50/196/39 52/195/39
f 50/196/39 67/197/39 60/198/39
f 50/196/39 60/198/39 76/199/39
f 76/199/39 60/198/39 59/200/39
f 76/199/39 59/200/39 74/201/39
f 74/201/39 59/200/39 79/202/39
f 79/203/40 57/139/40 54/159/40
f 57/139/40 79/203/40 59/141/40
f 83/206/1 77/205/1 78/204/1
f 77/205/1 83/206/1 63/207/1
f 63/207/1 83/206/1 84/208/1
f 63/207/1 84/208/1 64/209/1
f 64/209/1 84/208/1 55/210/1
f 64/209/1 55/210/1 53/211/1
f 70/164/41 83/190/41 78/212/41
f 83/190/41 70/164/41 72/165/41
f 66/162/42 65/147/42 58/140/42
f 65/147/42 66/162/42 81/213/42
f 82/192/43 51/133/43 49/131/43
f 51/133/43 82/192/43 80/214/43

