# Created by Kenney (www.kenney.nl)

mtllib stone-particle.mtl

g rocks_smallA

v 0.0354664 -2.65943E-17 -0.04104498
v 0.08140582 -2.65943E-17 -0.02873556
v 0.04777584 -2.65943E-17 -0.08698444
v 0.09371527 -2.65943E-17 -0.07467501
v 0.01457855 -2.65943E-17 0.01678935
v 0.0249313 -2.65943E-17 0.05542638
v 0.0532156 -2.65943E-17 0.006436574
v 0.06356835 -2.65943E-17 0.04507362
v -0.09371527 -2.65943E-17 -0.07194408
v -0.07918523 -2.65943E-17 -0.03467642
v -0.05644763 -2.65943E-17 -0.08647413
v -0.0419176 -2.65943E-17 -0.04920648
v -0.05098116 -2.65943E-17 0.008383621
v -0.01137045 -2.65943E-17 0.01395055
v -0.04541424 -2.65943E-17 -0.0312271
v -0.005803519 -2.65943E-17 -0.02566016
v -0.07301691 -2.65943E-17 0.06711067
v -0.02980822 -2.65943E-17 0.08698444
v -0.05314311 -2.65943E-17 0.02390202
v -0.009934502 -2.65943E-17 0.04377578
v -0.02570508 -0.01424263 0.0496095
v -0.04730938 -0.01424263 0.03967262
v -0.03564194 -0.01424263 0.07121382
v -0.05724628 -0.01424263 0.06127694
v -0.01709793 -0.0210152 -0.01714922
v -0.03690333 -0.0210152 -0.01993269
v -0.01988142 -0.0210152 0.002656139
v -0.03968677 -0.0210152 -0.0001273276
v 0.07299832 -0.01424263 -0.04329778
v 0.07915305 -0.01424263 -0.06626751
v 0.05002864 -0.01424263 -0.0494525
v 0.05618333 -0.01424263 -0.07242221
v 0.04614452 -0.0210152 0.01868404
v 0.02682602 -0.0210152 0.02386042
v 0.0320024 -0.0210152 0.04317892
v 0.0513209 -0.0210152 0.03800256
v -0.0735008 -0.0210152 -0.04762584
v -0.054867 -0.0210152 -0.05489087
v -0.08076584 -0.0210152 -0.06625967
v -0.06213206 -0.0210152 -0.0735247

vn 0 0.2 0
vn 0.06415602 -0.1281713 -0.1394852
vn 0.1394852 -0.1281713 0.06415602
vn -0.06415602 -0.1281713 0.1394852
vn -0.1394852 -0.1281713 -0.06415602
vn 0 -0.2 0
vn 0.02513414 -0.08593602 -0.1788387
vn 0.1788387 -0.08593602 0.02513414
vn -0.02513414 -0.08593602 0.1788387
vn -0.1788387 -0.08593602 -0.02513414
vn 0.1483006 -0.1281713 0.03973704
vn -0.03973704 -0.1281713 0.1483006
vn 0.03973704 -0.1281713 -0.1483006
vn -0.1483006 -0.1281713 -0.03973704
vn -0.04674176 -0.085936 -0.1744426
vn 0.04674176 -0.085936 0.1744426
vn 0.1744426 -0.085936 -0.04674176
vn -0.1744426 -0.085936 0.04674176
vn 0.06560182 -0.08593602 0.1682599
vn -0.1682599 -0.08593602 0.06560182
vn 0.1682599 -0.08593602 -0.06560182
vn -0.06560182 -0.08593602 -0.1682599

vt -0.0354664 0.04104498
vt -0.08140582 0.02873556
vt -0.04777584 0.08698444
vt -0.09371527 0.07467501
vt -0.01457855 -0.01678935
vt -0.0249313 -0.05542638
vt -0.0532156 -0.006436575
vt -0.06356835 -0.04507362
vt 0.09371527 0.07194408
vt 0.07918523 0.03467642
vt 0.05644763 0.08647413
vt 0.0419176 0.04920648
vt 0.05098116 -0.008383621
vt 0.01137045 -0.01395055
vt 0.04541424 0.0312271
vt 0.005803519 0.02566016
vt 0.07301691 -0.06711067
vt 0.02980822 -0.08698444
vt 0.05314311 -0.02390202
vt 0.009934502 -0.04377578
vt -0.02570508 -0.01424263
vt -0.04730938 -0.01424263
vt -0.009934502 -2.65943E-17
vt -0.05314311 -2.65943E-17
vt 0.07121382 -0.01424263
vt 0.0496095 -0.01424263
vt 0.08698444 -2.65943E-17
vt 0.04377578 -2.65943E-17
vt 0.05724628 -0.01424263
vt 0.03564194 -0.01424263
vt 0.07301691 -2.65943E-17
vt 0.02980822 -2.65943E-17
vt -0.06127694 -0.01424263
vt -0.06711067 -2.65943E-17
vt -0.03967262 -0.01424263
vt -0.02390202 -2.65943E-17
vt 0.05724628 0.06127694
vt 0.04730938 0.03967262
vt 0.03564194 0.07121382
vt 0.02570508 0.0496095
vt -0.01709793 -0.0210152
vt -0.03690333 -0.0210152
vt -0.005803519 -2.65943E-17
vt -0.04541424 -2.65943E-17
vt 0.002656138 -0.0210152
vt -0.01714922 -0.0210152
vt 0.01395055 -2.65943E-17
vt -0.02566016 -2.65943E-17
vt 0.03968677 -0.0001273276
vt 0.03690333 -0.01993269
vt 0.01988142 0.002656138
vt 0.01709793 -0.01714922
vt 0.03968677 -0.0210152
vt 0.01988142 -0.0210152
vt 0.05098116 -2.65943E-17
vt 0.01137045 -2.65943E-17
vt 0.0001273276 -0.0210152
vt -0.008383621 -2.65943E-17
vt 0.01993269 -0.0210152
vt 0.0312271 -2.65943E-17
vt -0.04329778 -0.01424263
vt -0.06626751 -0.01424263
vt -0.02873556 -2.65943E-17
vt -0.07467501 -2.65943E-17
vt -0.05002864 -0.01424263
vt -0.07299832 -0.01424263
vt -0.0354664 -2.65943E-17
vt -0.08140582 -2.65943E-17
vt 0.07915305 -0.01424263
vt 0.05618333 -0.01424263
vt 0.09371527 -2.65943E-17
vt 0.04777584 -2.65943E-17
vt 0.0494525 -0.01424263
vt 0.04104498 -2.65943E-17
vt 0.07242221 -0.01424263
vt -0.05002864 -0.0494525
vt -0.05618333 -0.07242221
vt -0.07299832 -0.04329778
vt -0.07915305 -0.06626751
vt 0.04614452 -0.0210152
vt 0.02682602 -0.0210152
vt 0.0532156 -2.65943E-17
vt 0.01457855 -2.65943E-17
vt -0.0320024 -0.0210152
vt -0.0513209 -0.0210152
vt -0.0249313 -2.65943E-17
vt -0.06356835 -2.65943E-17
vt 0.03800256 -0.0210152
vt 0.01868404 -0.0210152
vt 0.04507362 -2.65943E-17
vt 0.006436575 -2.65943E-17
vt -0.02682602 0.02386042
vt -0.04614452 0.01868404
vt -0.0320024 0.04317892
vt -0.0513209 0.03800256
vt -0.04317892 -0.0210152
vt -0.05542638 -2.65943E-17
vt -0.02386042 -0.0210152
vt -0.01678935 -2.65943E-17
vt 0.0735008 -0.0210152
vt 0.054867 -0.0210152
vt 0.07918523 -2.65943E-17
vt 0.0419176 -2.65943E-17
vt 0.04762584 -0.0210152
vt 0.03467642 -2.65943E-17
vt 0.06625967 -0.0210152
vt 0.07194408 -2.65943E-17
vt -0.05489087 -0.0210152
vt -0.0735247 -0.0210152
vt -0.04920648 -2.65943E-17
vt -0.08647413 -2.65943E-17
vt -0.06213207 -0.0210152
vt -0.08076584 -0.0210152
vt -0.05644763 -2.65943E-17
vt -0.09371527 -2.65943E-17
vt 0.08076584 -0.06625967
vt 0.06213207 -0.0735247
vt 0.0735008 -0.04762584
vt 0.054867 -0.05489087

usemtl stoneDark(Clone)

f 1/1/1 2/2/1 3/3/1
f 4/4/1 3/3/1 2/2/1
f 5/5/1 6/6/1 7/7/1
f 8/8/1 7/7/1 6/6/1
f 9/9/1 10/10/1 11/11/1
f 12/12/1 11/11/1 10/10/1
f 13/13/1 14/14/1 15/15/1
f 16/16/1 15/15/1 14/14/1
f 17/17/1 18/18/1 19/19/1
f 20/20/1 19/19/1 18/18/1
f 21/21/2 22/22/2 20/23/2
f 19/24/2 20/23/2 22/22/2
f 23/25/3 21/26/3 18/27/3
f 20/28/3 18/27/3 21/26/3
f 24/29/4 23/30/4 17/31/4
f 18/32/4 17/31/4 23/30/4
f 24/33/5 17/34/5 22/35/5
f 19/36/5 22/35/5 17/34/5
f 24/37/6 22/38/6 23/39/6
f 21/40/6 23/39/6 22/38/6
f 25/41/7 26/42/7 16/43/7
f 15/44/7 16/43/7 26/42/7
f 27/45/8 25/46/8 14/47/8
f 16/48/8 14/47/8 25/46/8
f 28/49/6 26/50/6 27/51/6
f 25/52/6 27/51/6 26/50/6
f 28/53/9 27/54/9 13/55/9
f 14/56/9 13/55/9 27/54/9
f 28/57/10 13/58/10 26/59/10
f 15/60/10 26/59/10 13/58/10
f 29/61/11 30/62/11 2/63/11
f 4/64/11 2/63/11 30/62/11
f 31/65/12 29/66/12 1/67/12
f 2/68/12 1/67/12 29/66/12
f 30/69/13 32/70/13 4/71/13
f 3/72/13 4/71/13 32/70/13
f 31/73/14 1/74/14 32/75/14
f 3/27/14 32/75/14 1/74/14
f 31/76/6 32/77/6 29/78/6
f 30/79/6 29/78/6 32/77/6
f 33/80/15 34/81/15 7/82/15
f 5/83/15 7/82/15 34/81/15
f 35/84/16 36/85/16 6/86/16
f 8/87/16 6/86/16 36/85/16
f 36/88/17 33/89/17 8/90/17
f 7/91/17 8/90/17 33/89/17
f 34/92/6 33/93/6 35/94/6
f 36/95/6 35/94/6 33/93/6
f 35/96/18 6/97/18 34/98/18
f 5/99/18 34/98/18 6/97/18
f 37/100/19 38/101/19 10/102/19
f 12/103/19 10/102/19 38/101/19
f 37/104/20 10/105/20 39/106/20
f 9/107/20 39/106/20 10/105/20
f 38/108/21 40/109/21 12/110/21
f 11/111/21 12/110/21 40/109/21
f 40/112/22 39/113/22 11/114/22
f 9/115/22 11/114/22 39/113/22
f 39/116/6 40/117/6 37/118/6
f 38/119/6 37/118/6 40/117/6

g rocks_smallA

v 0.0354664 2.65943E-17 -0.04104498
v 0.08140582 2.65943E-17 -0.02873556
v 0.04777584 2.65943E-17 -0.08698444
v 0.09371527 2.65943E-17 -0.07467501
v 0.01457855 2.65943E-17 0.01678935
v 0.0249313 2.65943E-17 0.05542638
v 0.0532156 2.65943E-17 0.006436574
v 0.06356835 2.65943E-17 0.04507362
v -0.09371527 2.65943E-17 -0.07194408
v -0.07918523 2.65943E-17 -0.03467642
v -0.05644763 2.65943E-17 -0.08647413
v -0.0419176 2.65943E-17 -0.04920648
v -0.05098116 2.65943E-17 0.008383621
v -0.01137045 2.65943E-17 0.01395055
v -0.04541424 2.65943E-17 -0.0312271
v -0.005803519 2.65943E-17 -0.02566016
v -0.07301691 2.65943E-17 0.06711067
v -0.02980822 2.65943E-17 0.08698444
v -0.05314311 2.65943E-17 0.02390202
v -0.009934502 2.65943E-17 0.04377578
v -0.02570508 0.01424263 0.0496095
v -0.04730938 0.01424263 0.03967262
v -0.03564194 0.01424263 0.07121382
v -0.05724628 0.01424263 0.06127694
v -0.01709793 0.0210152 -0.01714922
v -0.03690333 0.0210152 -0.01993269
v -0.01988142 0.0210152 0.002656139
v -0.03968677 0.0210152 -0.0001273276
v 0.07299832 0.01424263 -0.04329778
v 0.07915305 0.01424263 -0.06626751
v 0.05002864 0.01424263 -0.0494525
v 0.05618333 0.01424263 -0.07242221
v 0.04614452 0.0210152 0.01868404
v 0.02682602 0.0210152 0.02386042
v 0.0320024 0.0210152 0.04317892
v 0.0513209 0.0210152 0.03800256
v -0.0735008 0.0210152 -0.04762584
v -0.054867 0.0210152 -0.05489087
v -0.08076584 0.0210152 -0.06625967
v -0.06213206 0.0210152 -0.0735247

vn 0.06415602 0.1281713 -0.1394852
vn 0.1394852 0.1281713 0.06415602
vn -0.06415602 0.1281713 0.1394852
vn -0.1394852 0.1281713 -0.06415602
vn 0.02513414 0.08593602 -0.1788387
vn 0.1788387 0.08593602 0.02513414
vn -0.02513414 0.08593602 0.1788387
vn -0.1788387 0.08593602 -0.02513414
vn 0.1483006 0.1281713 0.03973704
vn -0.03973704 0.1281713 0.1483006
vn 0.03973704 0.1281713 -0.1483006
vn -0.1483006 0.1281713 -0.03973704
vn -0.04674176 0.085936 -0.1744426
vn 0.04674176 0.085936 0.1744426
vn 0.1744426 0.085936 -0.04674176
vn -0.1744426 0.085936 0.04674176
vn 0.06560182 0.08593602 0.1682599
vn -0.1682599 0.08593602 0.06560182
vn 0.1682599 0.08593602 -0.06560182
vn -0.06560182 0.08593602 -0.1682599

vt 0.02570508 0.01424263
vt 0.04730938 0.01424263
vt 0.009934502 2.65943E-17
vt 0.05314311 2.65943E-17
vt -0.07121382 0.01424263
vt -0.0496095 0.01424263
vt -0.08698444 2.65943E-17
vt -0.04377578 2.65943E-17
vt -0.05724628 0.01424263
vt -0.03564194 0.01424263
vt -0.07301691 2.65943E-17
vt -0.02980822 2.65943E-17
vt 0.06127694 0.01424263
vt 0.06711067 2.65943E-17
vt 0.03967262 0.01424263
vt 0.02390202 2.65943E-17
vt 0.01709793 0.0210152
vt 0.03690333 0.0210152
vt 0.005803519 2.65943E-17
vt 0.04541424 2.65943E-17
vt -0.002656138 0.0210152
vt 0.01714922 0.0210152
vt -0.01395055 2.65943E-17
vt 0.02566016 2.65943E-17
vt -0.03968677 0.0210152
vt -0.01988142 0.0210152
vt -0.05098116 2.65943E-17
vt -0.01137045 2.65943E-17
vt -0.0001273276 0.0210152
vt 0.008383621 2.65943E-17
vt -0.01993269 0.0210152
vt -0.0312271 2.65943E-17
vt 0.04329778 0.01424263
vt 0.06626751 0.01424263
vt 0.02873556 2.65943E-17
vt 0.07467501 2.65943E-17
vt 0.05002864 0.01424263
vt 0.07299832 0.01424263
vt 0.0354664 2.65943E-17
vt 0.08140582 2.65943E-17
vt -0.07915305 0.01424263
vt -0.05618333 0.01424263
vt -0.09371527 2.65943E-17
vt -0.04777584 2.65943E-17
vt -0.0494525 0.01424263
vt -0.04104498 2.65943E-17
vt -0.07242221 0.01424263
vt -0.04614452 0.0210152
vt -0.02682602 0.0210152
vt -0.0532156 2.65943E-17
vt -0.01457855 2.65943E-17
vt 0.0320024 0.0210152
vt 0.0513209 0.0210152
vt 0.0249313 2.65943E-17
vt 0.06356835 2.65943E-17
vt -0.03800256 0.0210152
vt -0.01868404 0.0210152
vt -0.04507362 2.65943E-17
vt -0.006436575 2.65943E-17
vt 0.04317892 0.0210152
vt 0.05542638 2.65943E-17
vt 0.02386042 0.0210152
vt 0.01678935 2.65943E-17
vt -0.0735008 0.0210152
vt -0.054867 0.0210152
vt -0.07918523 2.65943E-17
vt -0.0419176 2.65943E-17
vt -0.04762584 0.0210152
vt -0.03467642 2.65943E-17
vt -0.06625967 0.0210152
vt -0.07194408 2.65943E-17
vt 0.05489087 0.0210152
vt 0.0735247 0.0210152
vt 0.04920648 2.65943E-17
vt 0.08647413 2.65943E-17
vt 0.06213207 0.0210152
vt 0.08076584 0.0210152
vt 0.05644763 2.65943E-17
vt 0.09371527 2.65943E-17

usemtl stoneDark(Clone)

f 43/3/6 42/2/6 41/1/6
f 42/2/6 43/3/6 44/4/6
f 47/7/6 46/6/6 45/5/6
f 46/6/6 47/7/6 48/8/6
f 51/11/6 50/10/6 49/9/6
f 50/10/6 51/11/6 52/12/6
f 55/15/6 54/14/6 53/13/6
f 54/14/6 55/15/6 56/16/6
f 59/19/6 58/18/6 57/17/6
f 58/18/6 59/19/6 60/20/6
f 60/122/23 62/121/23 61/120/23
f 62/121/23 60/122/23 59/123/23
f 58/126/24 61/125/24 63/124/24
f 61/125/24 58/126/24 60/127/24
f 57/130/25 63/129/25 64/128/25
f 63/129/25 57/130/25 58/131/25
f 62/134/26 57/133/26 64/132/26
f 57/133/26 62/134/26 59/135/26
f 63/39/1 62/38/1 64/37/1
f 62/38/1 63/39/1 61/40/1
f 56/138/27 66/137/27 65/136/27
f 66/137/27 56/138/27 55/139/27
f 54/142/28 65/141/28 67/140/28
f 65/141/28 54/142/28 56/143/28
f 67/51/1 66/50/1 68/49/1
f 66/50/1 67/51/1 65/52/1
f 53/146/29 67/145/29 68/144/29
f 67/145/29 53/146/29 54/147/29
f 66/150/30 53/149/30 68/148/30
f 53/149/30 66/150/30 55/151/30
f 42/154/31 70/153/31 69/152/31
f 70/153/31 42/154/31 44/155/31
f 41/158/32 69/157/32 71/156/32
f 69/157/32 41/158/32 42/159/32
f 44/162/33 72/161/33 70/160/33
f 72/161/33 44/162/33 43/163/33
f 72/166/34 41/165/34 71/164/34
f 41/165/34 72/166/34 43/126/34
f 69/78/1 72/77/1 71/76/1
f 72/77/1 69/78/1 70/79/1
f 47/169/35 74/168/35 73/167/35
f 74/168/35 47/169/35 45/170/35
f 46/173/36 76/172/36 75/171/36
f 76/172/36 46/173/36 48/174/36
f 48/177/37 73/176/37 76/175/37
f 73/176/37 48/177/37 47/178/37
f 75/94/1 73/93/1 74/92/1
f 73/93/1 75/94/1 76/95/1
f 74/181/38 46/180/38 75/179/38
f 46/180/38 74/181/38 45/182/38
f 50/185/39 78/184/39 77/183/39
f 78/184/39 50/185/39 52/186/39
f 79/189/40 50/188/40 77/187/40
f 50/188/40 79/189/40 49/190/40
f 52/193/41 80/192/41 78/191/41
f 80/192/41 52/193/41 51/194/41
f 51/197/42 79/196/42 80/195/42
f 79/196/42 51/197/42 49/198/42
f 77/118/1 80/117/1 79/116/1
f 80/117/1 77/118/1 78/119/1

